<svg xmlns="http://www.w3.org/2000/svg" xmlns:xlink="http://www.w3.org/1999/xlink" width="500" zoomAndPan="magnify" viewBox="0 0 375 187.499995" height="250" preserveAspectRatio="xMidYMid meet" version="1.0"><defs><g/><clipPath id="4990ed7825"><path d="M 91.847656 46.359375 L 167.347656 46.359375 L 167.347656 121.855469 L 91.847656 121.855469 Z M 91.847656 46.359375 " clip-rule="nonzero"/></clipPath><clipPath id="dbebd88017"><path d="M 181.902344 73.503906 L 140.183594 136.421875 L 77.265625 94.707031 L 118.980469 31.785156 Z M 181.902344 73.503906 " clip-rule="nonzero"/></clipPath><clipPath id="b77e99bc7a"><path d="M 181.902344 73.503906 L 140.191406 136.410156 L 77.285156 94.703125 L 118.996094 31.796875 Z M 181.902344 73.503906 " clip-rule="nonzero"/></clipPath><clipPath id="343c59df57"><path d="M 161.046875 104.957031 C 172.5625 87.585938 167.820312 64.167969 150.449219 52.648438 C 133.078125 41.132812 109.660156 45.878906 98.140625 63.25 C 86.625 80.621094 91.367188 104.039062 108.738281 115.554688 C 126.109375 127.074219 149.527344 122.328125 161.046875 104.957031 Z M 161.046875 104.957031 " clip-rule="nonzero"/></clipPath><clipPath id="77af9c87ae"><path d="M 95.808594 48.40625 L 164.871094 48.40625 L 164.871094 117.472656 L 95.808594 117.472656 Z M 95.808594 48.40625 " clip-rule="nonzero"/></clipPath><clipPath id="9f4898ba06"><path d="M 178.148438 73.277344 L 140.023438 130.78125 L 82.515625 92.652344 L 120.644531 35.148438 Z M 178.148438 73.277344 " clip-rule="nonzero"/></clipPath><clipPath id="e6ba82050d"><path d="M 178.148438 73.277344 L 140.035156 130.757812 L 82.550781 92.648438 L 120.664062 35.164062 Z M 178.148438 73.277344 " clip-rule="nonzero"/></clipPath><clipPath id="5cfd66aacc"><path d="M 159.09375 102.019531 C 169.617188 86.144531 165.28125 64.746094 149.40625 54.21875 C 133.535156 43.695312 112.132812 48.03125 101.609375 63.90625 C 91.085938 79.777344 95.421875 101.179688 111.292969 111.703125 C 127.167969 122.226562 148.566406 117.890625 159.09375 102.019531 Z M 159.09375 102.019531 " clip-rule="nonzero"/></clipPath><clipPath id="0e1084208d"><path d="M 99.695312 50.742188 L 162.257812 50.742188 L 162.257812 113.300781 L 99.695312 113.300781 Z M 99.695312 50.742188 " clip-rule="nonzero"/></clipPath><clipPath id="4120302ebe"><path d="M 174.3125 73.242188 L 139.746094 125.378906 L 87.613281 90.8125 L 122.179688 38.675781 Z M 174.3125 73.242188 " clip-rule="nonzero"/></clipPath><clipPath id="f98d420afb"><path d="M 174.3125 73.242188 L 139.753906 125.367188 L 87.628906 90.808594 L 122.1875 38.683594 Z M 174.3125 73.242188 " clip-rule="nonzero"/></clipPath><clipPath id="c9e2b20611"><path d="M 157.03125 99.304688 C 166.578125 84.910156 162.644531 65.507812 148.25 55.964844 C 133.855469 46.421875 114.453125 50.351562 104.910156 64.746094 C 95.367188 79.140625 99.296875 98.542969 113.691406 108.085938 C 128.085938 117.632812 147.488281 113.699219 157.03125 99.304688 Z M 157.03125 99.304688 " clip-rule="nonzero"/></clipPath><clipPath id="2dcfb82a6a"><path d="M 104.503906 53.003906 L 159.429688 53.003906 L 159.429688 108 L 104.503906 108 Z M 104.503906 53.003906 " clip-rule="nonzero"/></clipPath><clipPath id="6a3f9855a7"><path d="M 170.019531 72.800781 L 139.695312 118.539062 L 93.960938 88.214844 L 124.285156 42.480469 Z M 170.019531 72.800781 " clip-rule="nonzero"/></clipPath><clipPath id="63573112f0"><path d="M 170.019531 72.800781 L 139.683594 118.554688 L 93.929688 88.21875 L 124.265625 42.46875 Z M 170.019531 72.800781 " clip-rule="nonzero"/></clipPath><clipPath id="df556c5432"><path d="M 154.851562 95.679688 C 163.230469 83.042969 159.777344 66.011719 147.144531 57.632812 C 134.507812 49.257812 117.476562 52.710938 109.097656 65.34375 C 100.722656 77.976562 104.171875 95.011719 116.808594 103.386719 C 129.441406 111.765625 146.476562 108.3125 154.851562 95.679688 Z M 154.851562 95.679688 " clip-rule="nonzero"/></clipPath><clipPath id="50fe96de09"><path d="M 109.238281 55.40625 L 156.601562 55.40625 L 156.601562 102.769531 L 109.238281 102.769531 Z M 109.238281 55.40625 " clip-rule="nonzero"/></clipPath><clipPath id="ddc5a25ee3"><path d="M 165.722656 72.425781 L 139.582031 111.847656 L 100.15625 85.710938 L 126.296875 46.285156 Z M 165.722656 72.425781 " clip-rule="nonzero"/></clipPath><clipPath id="48e1004f57"><path d="M 165.722656 72.425781 L 139.574219 111.859375 L 100.140625 85.714844 L 126.289062 46.277344 Z M 165.722656 72.425781 " clip-rule="nonzero"/></clipPath><clipPath id="16c4195917"><path d="M 152.648438 92.140625 C 159.871094 81.253906 156.894531 66.570312 146.003906 59.351562 C 135.117188 52.132812 120.433594 55.105469 113.214844 65.996094 C 105.992188 76.886719 108.96875 91.566406 119.859375 98.785156 C 130.75 106.007812 145.429688 103.03125 152.648438 92.140625 Z M 152.648438 92.140625 " clip-rule="nonzero"/></clipPath><clipPath id="4a8edc4732"><path d="M 113.691406 57.527344 L 153.984375 57.527344 L 153.984375 97.820312 L 113.691406 97.820312 Z M 113.691406 57.527344 " clip-rule="nonzero"/></clipPath><clipPath id="2df791ff5e"><path d="M 161.710938 72.039062 L 139.484375 105.558594 L 105.96875 83.335938 L 128.191406 49.816406 Z M 161.710938 72.039062 " clip-rule="nonzero"/></clipPath><clipPath id="a7fbb4bf17"><path d="M 161.710938 72.039062 L 139.496094 105.546875 L 105.988281 83.332031 L 128.203125 49.824219 Z M 161.710938 72.039062 " clip-rule="nonzero"/></clipPath><clipPath id="31c5e983cc"><path d="M 150.601562 88.792969 C 156.738281 79.539062 154.207031 67.066406 144.957031 60.933594 C 135.703125 54.796875 123.230469 57.324219 117.097656 66.578125 C 110.960938 75.828125 113.488281 88.304688 122.742188 94.4375 C 131.992188 100.574219 144.46875 98.046875 150.601562 88.792969 Z M 150.601562 88.792969 " clip-rule="nonzero"/></clipPath><clipPath id="edd5971543"><path d="M 180 0.179688 L 336.949219 0.179688 L 336.949219 168.453125 L 180 168.453125 Z M 180 0.179688 " clip-rule="nonzero"/></clipPath><clipPath id="554da0c3af"><path d="M 156 47 L 156.949219 47 L 156.949219 48 L 156 48 Z M 156 47 " clip-rule="nonzero"/></clipPath><clipPath id="6e8017d05e"><rect x="0" width="157" y="0" height="169"/></clipPath><clipPath id="dc70af13ae"><path d="M 168 0.179688 L 246 0.179688 L 246 168.453125 L 168 168.453125 Z M 168 0.179688 " clip-rule="nonzero"/></clipPath><clipPath id="5c5d81f9bc"><path d="M 0.199219 46 L 77 46 L 77 122 L 0.199219 122 Z M 0.199219 46 " clip-rule="nonzero"/></clipPath><clipPath id="e2e414149a"><rect x="0" width="78" y="0" height="169"/></clipPath><clipPath id="f0bc26112f"><path d="M 0.167969 0.179688 L 89 0.179688 L 89 168.453125 L 0.167969 168.453125 Z M 0.167969 0.179688 " clip-rule="nonzero"/></clipPath><clipPath id="92928d6a65"><rect x="0" width="89" y="0" height="169"/></clipPath><clipPath id="b9c9708b1f"><rect x="0" width="337" y="0" height="169"/></clipPath></defs><g transform="matrix(1, 0, 0, 1, 19, 7)"><g clip-path="url(#b9c9708b1f)"><g clip-path="url(#4990ed7825)"><g clip-path="url(#dbebd88017)"><g clip-path="url(#b77e99bc7a)"><g clip-path="url(#343c59df57)"><path stroke-linecap="butt" transform="matrix(-0.0296707, 0.0447504, -0.0447504, -0.0296707, 181.900814, 73.503994)" fill="none" stroke-linejoin="miter" d="M 702.85193 -0.00378004 C 314.693951 0.025129 -0.0044382 314.648009 -0.0361637 702.846191 C -0.00725468 1091.00417 314.67626 1405.662357 702.874441 1405.694082 C 1091.03242 1405.665173 1405.73081 1091.042293 1405.701901 702.884314 C 1405.733626 314.686133 1091.009909 -0.0326891 702.85193 -0.00378004 Z M 702.85193 -0.00378004 " stroke="#ffd966" stroke-width="63.162998" stroke-opacity="1" stroke-miterlimit="4"/></g></g></g></g><g clip-path="url(#77af9c87ae)"><g clip-path="url(#9f4898ba06)"><g clip-path="url(#e6ba82050d)"><g clip-path="url(#5cfd66aacc)"><path stroke-linecap="butt" transform="matrix(-0.0296707, 0.0447504, -0.0447504, -0.0296707, 178.14853, 73.276291)" fill="none" stroke-linejoin="miter" d="M 642.27272 -0.0424724 C 287.549136 -0.00986295 0.0177574 287.522457 -0.0102676 642.286242 C -0.0178604 996.949191 287.554661 1284.541205 642.278245 1284.508595 C 996.941194 1284.516188 1284.533207 996.943666 1284.5408 642.280717 C 1284.50819 287.557134 996.975871 0.0257549 642.27272 -0.0424724 Z M 642.27272 -0.0424724 " stroke="#ffab1a" stroke-width="63.162998" stroke-opacity="1" stroke-miterlimit="4"/></g></g></g></g><g clip-path="url(#0e1084208d)"><g clip-path="url(#4120302ebe)"><g clip-path="url(#f98d420afb)"><g clip-path="url(#c9e2b20611)"><path stroke-linecap="butt" transform="matrix(-0.0296707, 0.0447504, -0.0447504, -0.0296707, 174.312577, 73.243762)" fill="none" stroke-linejoin="miter" d="M 582.384676 0.0350066 C 260.692141 -0.0104125 0.00416794 260.733195 0.0193834 582.385527 C 0.0345988 904.03786 260.717571 1164.766035 582.369904 1164.75082 C 904.022236 1164.735604 1164.750412 904.052632 1164.735196 582.400299 C 1164.780615 260.707764 904.037008 0.0197912 582.384676 0.0350066 Z M 582.384676 0.0350066 " stroke="#ffab1a" stroke-width="63.162998" stroke-opacity="1" stroke-miterlimit="4"/></g></g></g></g><g clip-path="url(#2dcfb82a6a)"><g clip-path="url(#6a3f9855a7)"><g clip-path="url(#63573112f0)"><g clip-path="url(#df556c5432)"><path stroke-linecap="butt" transform="matrix(-0.0296707, 0.0447504, -0.0447504, -0.0296707, 170.019348, 72.802592)" fill="none" stroke-linejoin="miter" d="M 511.211766 -0.00503745 C 228.825242 -0.0117545 -0.002457 228.871032 -0.0493763 511.196922 C 0.00454122 793.543244 228.887328 1022.370943 511.213218 1022.417863 C 793.498906 1022.404147 1022.427441 793.541793 1022.373524 511.195471 C 1022.420443 228.869581 793.497454 -0.0187527 511.211766 -0.00503745 Z M 511.211766 -0.00503745 " stroke="#f5900d" stroke-width="63.162998" stroke-opacity="1" stroke-miterlimit="4"/></g></g></g></g><g clip-path="url(#50fe96de09)"><g clip-path="url(#ddc5a25ee3)"><g clip-path="url(#48e1004f57)"><g clip-path="url(#16c4195917)"><path stroke-linecap="butt" transform="matrix(-0.0296707, 0.0447504, -0.0447504, -0.0296707, 165.722408, 72.424456)" fill="none" stroke-linejoin="miter" d="M 440.597413 0.0254129 C 197.275023 -0.0441011 -0.0160068 197.279714 0.015316 440.622536 C 0.00643654 683.904723 197.269617 881.235955 440.612439 881.204632 C 683.995463 881.233944 881.225858 683.950332 881.194536 440.607509 C 881.223847 197.224485 683.940235 -0.00590994 440.597413 0.0254129 Z M 440.597413 0.0254129 " stroke="#e95e01" stroke-width="63.162998" stroke-opacity="1" stroke-miterlimit="4"/></g></g></g></g><g clip-path="url(#4a8edc4732)"><g clip-path="url(#2df791ff5e)"><g clip-path="url(#a7fbb4bf17)"><g clip-path="url(#31c5e983cc)"><path stroke-linecap="butt" transform="matrix(-0.0296707, 0.0447504, -0.0447504, -0.0296707, 161.709347, 72.039957)" fill="none" stroke-linejoin="miter" d="M 374.366429 0.00157376 C 167.565497 -0.0160906 0.0105468 167.640907 0.0133147 374.341002 C -0.0043496 581.141934 167.592014 748.737086 374.352743 748.694116 C 581.09304 748.751983 748.748827 581.115417 748.705857 374.354688 C 748.763724 167.614391 581.127158 -0.0413964 374.366429 0.00157376 Z M 374.366429 0.00157376 " stroke="#e95e01" stroke-width="63.162998" stroke-opacity="1" stroke-miterlimit="4"/></g></g></g></g><g clip-path="url(#edd5971543)"><g transform="matrix(1, 0, 0, 1, 180, -0.000000000000001776)"><g clip-path="url(#6e8017d05e)"><g clip-path="url(#554da0c3af)"><g fill="#ffffff" fill-opacity="1"><g transform="translate(156.792177, 47.95444)"><g/></g></g></g><g fill="#ffffff" fill-opacity="1"><g transform="translate(130.83578, 47.95444)"><g><path d="M -37.8125 -1.265625 C -34.28125 -1.265625 -31.15625 -0.457031 -28.4375 1.15625 C -25.71875 2.78125 -23.757812 5.253906 -22.5625 8.578125 L 0 74.140625 L -19.171875 74.140625 L -36.328125 16.734375 C -36.460938 16.304688 -36.65625 15.988281 -36.90625 15.78125 C -37.15625 15.570312 -37.457031 15.46875 -37.8125 15.46875 C -38.164062 15.46875 -38.460938 15.550781 -38.703125 15.71875 C -38.953125 15.894531 -39.148438 16.234375 -39.296875 16.734375 L -56.765625 74.140625 L -75.515625 74.140625 L -53.0625 8.578125 C -51.925781 5.398438 -49.984375 2.960938 -47.234375 1.265625 C -44.484375 -0.421875 -41.34375 -1.265625 -37.8125 -1.265625 Z M -37.8125 -1.265625 "/></g></g></g><g fill="#ffffff" fill-opacity="1"><g transform="translate(57.437229, 47.95444)"><g/></g></g><g fill="#ffffff" fill-opacity="1"><g transform="translate(29.372362, 47.95444)"><g/></g></g></g></g></g><g clip-path="url(#dc70af13ae)"><g transform="matrix(1, 0, 0, 1, 168, -0.000000000000001776)"><g clip-path="url(#e2e414149a)"><g clip-path="url(#5c5d81f9bc)"><g fill="#ffffff" fill-opacity="1"><g transform="translate(0.496955, 120.558109)"><g><path d="M 37.8125 1.265625 C 34.28125 1.265625 31.15625 0.457031 28.4375 -1.15625 C 25.71875 -2.78125 23.757812 -5.253906 22.5625 -8.578125 L 0 -74.140625 L 19.171875 -74.140625 L 36.328125 -16.734375 C 36.460938 -16.304688 36.65625 -15.988281 36.90625 -15.78125 C 37.15625 -15.570312 37.457031 -15.46875 37.8125 -15.46875 C 38.164062 -15.46875 38.460938 -15.550781 38.703125 -15.71875 C 38.953125 -15.894531 39.148438 -16.234375 39.296875 -16.734375 L 56.765625 -74.140625 L 75.515625 -74.140625 L 53.0625 -8.578125 C 51.925781 -5.398438 49.984375 -2.960938 47.234375 -1.265625 C 44.484375 0.421875 41.34375 1.265625 37.8125 1.265625 Z M 37.8125 1.265625 "/></g></g></g></g></g></g></g><g clip-path="url(#f0bc26112f)"><g transform="matrix(1, 0, 0, 1, -0.000000000000007105, -0.000000000000001776)"><g clip-path="url(#92928d6a65)"><g fill="#ffffff" fill-opacity="1"><g transform="translate(0.198807, 120.558109)"><g><path d="M 58.671875 1.265625 C 54.222656 1.265625 50.234375 0.296875 46.703125 -1.640625 C 43.171875 -3.578125 40.378906 -6.273438 38.328125 -9.734375 C 36.285156 -13.203125 35.265625 -17.125 35.265625 -21.5 L 35.265625 -53.90625 C 35.265625 -55.03125 34.984375 -56.050781 34.421875 -56.96875 C 33.859375 -57.894531 33.113281 -58.640625 32.1875 -59.203125 C 31.269531 -59.765625 30.25 -60.046875 29.125 -60.046875 C 28 -60.046875 26.972656 -59.765625 26.046875 -59.203125 C 25.128906 -58.640625 24.40625 -57.894531 23.875 -56.96875 C 23.351562 -56.050781 23.09375 -55.03125 23.09375 -53.90625 L 23.09375 0 L 5.71875 0 L 5.71875 -52.640625 C 5.71875 -57.085938 6.722656 -61.003906 8.734375 -64.390625 C 10.742188 -67.773438 13.53125 -70.457031 17.09375 -72.4375 C 20.664062 -74.414062 24.675781 -75.40625 29.125 -75.40625 C 33.644531 -75.40625 37.671875 -74.414062 41.203125 -72.4375 C 44.734375 -70.457031 47.519531 -67.773438 49.5625 -64.390625 C 51.613281 -61.003906 52.640625 -57.085938 52.640625 -52.640625 L 52.640625 -20.234375 C 52.640625 -19.097656 52.921875 -18.050781 53.484375 -17.09375 C 54.046875 -16.144531 54.769531 -15.40625 55.65625 -14.875 C 56.539062 -14.34375 57.507812 -14.078125 58.5625 -14.078125 C 59.695312 -14.078125 60.738281 -14.34375 61.6875 -14.875 C 62.644531 -15.40625 63.40625 -16.144531 63.96875 -17.09375 C 64.53125 -18.050781 64.8125 -19.097656 64.8125 -20.234375 L 64.8125 -74.140625 L 82.078125 -74.140625 L 82.078125 -21.5 C 82.078125 -17.125 81.050781 -13.203125 79 -9.734375 C 76.957031 -6.273438 74.171875 -3.578125 70.640625 -1.640625 C 67.109375 0.296875 63.117188 1.265625 58.671875 1.265625 Z M 58.671875 1.265625 "/></g></g></g></g></g></g></g></g></svg>