<svg xmlns="http://www.w3.org/2000/svg" xmlns:xlink="http://www.w3.org/1999/xlink" width="635" zoomAndPan="magnify" viewBox="0 0 476.25 237.749993" height="317" preserveAspectRatio="xMidYMid meet" version="1.0"><defs><g/><clipPath id="f11534e1d1"><path d="M 150.457031 75.335938 L 236.300781 75.335938 L 236.300781 161.179688 L 150.457031 161.179688 Z M 150.457031 75.335938 " clip-rule="nonzero"/></clipPath><clipPath id="810131d3db"><path d="M 252.851562 106.203125 L 205.417969 177.746094 L 133.875 130.308594 L 181.308594 58.765625 Z M 252.851562 106.203125 " clip-rule="nonzero"/></clipPath><clipPath id="2d6b3d3c26"><path d="M 252.851562 106.203125 L 205.425781 177.730469 L 133.898438 130.304688 L 181.324219 58.777344 Z M 252.851562 106.203125 " clip-rule="nonzero"/></clipPath><clipPath id="f1188ce7d5"><path d="M 229.136719 141.964844 C 242.234375 122.214844 236.839844 95.585938 217.085938 82.488281 C 197.335938 69.394531 170.707031 74.789062 157.609375 94.539062 C 144.515625 114.292969 149.910156 140.921875 169.664062 154.015625 C 189.414062 167.113281 216.042969 161.71875 229.136719 141.964844 Z M 229.136719 141.964844 " clip-rule="nonzero"/></clipPath><clipPath id="9149534da0"><path d="M 155 77.664062 L 233.488281 77.664062 L 233.488281 156.195312 L 155 156.195312 Z M 155 77.664062 " clip-rule="nonzero"/></clipPath><clipPath id="0ea2681082"><path d="M 248.585938 105.941406 L 205.230469 171.328125 L 139.847656 127.976562 L 183.199219 62.589844 Z M 248.585938 105.941406 " clip-rule="nonzero"/></clipPath><clipPath id="aeedeeb360"><path d="M 248.585938 105.941406 L 205.246094 171.304688 L 139.886719 127.96875 L 183.222656 62.605469 Z M 248.585938 105.941406 " clip-rule="nonzero"/></clipPath><clipPath id="4e6f0b4d3a"><path d="M 226.917969 138.625 C 238.882812 120.574219 233.953125 96.242188 215.902344 84.273438 C 197.855469 72.308594 173.519531 77.238281 161.554688 95.285156 C 149.585938 113.335938 154.515625 137.667969 172.566406 149.636719 C 190.617188 161.601562 214.949219 156.671875 226.917969 138.625 Z M 226.917969 138.625 " clip-rule="nonzero"/></clipPath><clipPath id="b0e409195b"><path d="M 159.378906 80.316406 L 230.515625 80.316406 L 230.515625 151.453125 L 159.378906 151.453125 Z M 159.378906 80.316406 " clip-rule="nonzero"/></clipPath><clipPath id="56d67e4cf5"><path d="M 244.222656 105.90625 L 204.917969 165.183594 L 145.640625 125.882812 L 184.941406 66.601562 Z M 244.222656 105.90625 " clip-rule="nonzero"/></clipPath><clipPath id="53e916ac49"><path d="M 244.222656 105.90625 L 204.925781 165.171875 L 145.660156 125.878906 L 184.953125 66.609375 Z M 244.222656 105.90625 " clip-rule="nonzero"/></clipPath><clipPath id="2db9b3b7df"><path d="M 224.574219 135.539062 C 235.425781 119.171875 230.957031 97.109375 214.589844 86.257812 C 198.222656 75.40625 176.15625 79.875 165.308594 96.242188 C 154.457031 112.609375 158.925781 134.675781 175.292969 145.523438 C 191.660156 156.375 213.722656 151.90625 224.574219 135.539062 Z M 224.574219 135.539062 " clip-rule="nonzero"/></clipPath><clipPath id="5a61e79068"><path d="M 164.84375 82.890625 L 227.300781 82.890625 L 227.300781 145.425781 L 164.84375 145.425781 Z M 164.84375 82.890625 " clip-rule="nonzero"/></clipPath><clipPath id="5037f4106b"><path d="M 239.339844 105.402344 L 204.863281 157.40625 L 152.859375 122.925781 L 187.335938 70.925781 Z M 239.339844 105.402344 " clip-rule="nonzero"/></clipPath><clipPath id="c665979d90"><path d="M 239.339844 105.402344 L 204.847656 157.429688 L 152.824219 122.933594 L 187.316406 70.910156 Z M 239.339844 105.402344 " clip-rule="nonzero"/></clipPath><clipPath id="bd28288da0"><path d="M 222.09375 131.417969 C 231.621094 117.050781 227.695312 97.683594 213.328125 88.15625 C 198.964844 78.632812 179.59375 82.554688 170.070312 96.921875 C 160.546875 111.289062 164.46875 130.65625 178.835938 140.179688 C 193.203125 149.707031 212.570312 145.78125 222.09375 131.417969 Z M 222.09375 131.417969 " clip-rule="nonzero"/></clipPath><clipPath id="57954e844a"><path d="M 170.230469 85.625 L 224.085938 85.625 L 224.085938 139.476562 L 170.230469 139.476562 Z M 170.230469 85.625 " clip-rule="nonzero"/></clipPath><clipPath id="9ad765b18b"><path d="M 234.457031 104.972656 L 204.734375 149.800781 L 159.902344 120.078125 L 189.625 75.25 Z M 234.457031 104.972656 " clip-rule="nonzero"/></clipPath><clipPath id="aaa1f8a99e"><path d="M 234.457031 104.972656 L 204.726562 149.8125 L 159.886719 120.082031 L 189.617188 75.242188 Z M 234.457031 104.972656 " clip-rule="nonzero"/></clipPath><clipPath id="a2df976530"><path d="M 219.589844 127.394531 C 227.800781 115.011719 224.417969 98.320312 212.035156 90.109375 C 199.652344 81.898438 182.960938 85.28125 174.75 97.664062 C 166.539062 110.046875 169.921875 126.738281 182.304688 134.949219 C 194.6875 143.160156 211.378906 139.777344 219.589844 127.394531 Z M 219.589844 127.394531 " clip-rule="nonzero"/></clipPath><clipPath id="dbb51b35d7"><path d="M 175.292969 88.035156 L 221.109375 88.035156 L 221.109375 133.851562 L 175.292969 133.851562 Z M 175.292969 88.035156 " clip-rule="nonzero"/></clipPath><clipPath id="1924999fb7"><path d="M 229.890625 104.535156 L 204.621094 142.648438 L 166.511719 117.378906 L 191.78125 79.265625 Z M 229.890625 104.535156 " clip-rule="nonzero"/></clipPath><clipPath id="cebaed39f5"><path d="M 229.890625 104.535156 L 204.632812 142.632812 L 166.535156 117.375 L 191.792969 79.277344 Z M 229.890625 104.535156 " clip-rule="nonzero"/></clipPath><clipPath id="5fc9942fed"><path d="M 217.261719 123.585938 C 224.238281 113.066406 221.363281 98.882812 210.84375 91.90625 C 200.324219 84.929688 186.140625 87.804688 179.164062 98.324219 C 172.1875 108.847656 175.0625 123.027344 185.582031 130.003906 C 196.105469 136.980469 210.285156 134.105469 217.261719 123.585938 Z M 217.261719 123.585938 " clip-rule="nonzero"/></clipPath><clipPath id="a3bdeda1cd"><rect x="0" width="179" y="0" height="193"/></clipPath><clipPath id="ba6fb8a2fd"><path d="M 0.226562 53 L 87 53 L 87 140 L 0.226562 140 Z M 0.226562 53 " clip-rule="nonzero"/></clipPath><clipPath id="3322b6f31a"><rect x="0" width="88" y="0" height="193"/></clipPath><clipPath id="96bd616cb3"><rect x="0" width="101" y="0" height="193"/></clipPath></defs><g clip-path="url(#f11534e1d1)"><g clip-path="url(#810131d3db)"><g clip-path="url(#2d6b3d3c26)"><g clip-path="url(#f1188ce7d5)"><path stroke-linecap="butt" transform="matrix(-0.0337375, 0.0508841, -0.0508841, -0.0337375, 252.851193, 106.201357)" fill="none" stroke-linejoin="miter" d="M 702.86367 0.0321241 C 314.700363 -0.00736981 0.00711432 314.658524 0.00297657 702.875157 C 0.0168081 1091.003108 314.682702 1405.696357 702.84601 1405.735851 C 1091.027286 1405.686663 1405.720535 1091.020769 1405.671347 702.839492 C 1405.710841 314.676185 1091.044947 -0.0170636 702.86367 0.0321241 Z M 702.86367 0.0321241 " stroke="#ffd966" stroke-width="63.162998" stroke-opacity="1" stroke-miterlimit="4"/></g></g></g></g><g clip-path="url(#9149534da0)"><g clip-path="url(#0ea2681082)"><g clip-path="url(#aeedeeb360)"><g clip-path="url(#4e6f0b4d3a)"><path stroke-linecap="butt" transform="matrix(-0.0337375, 0.0508841, -0.0508841, -0.0337375, 248.584611, 105.942442)" fill="none" stroke-linejoin="miter" d="M 642.269552 -0.0374368 C 287.556156 0.00752066 0.010933 287.53822 0.00256494 642.286973 C 0.0121662 996.947044 287.578222 1284.545592 642.238293 1284.535991 C 996.987045 1284.544359 1284.532268 997.013659 1284.540636 642.264906 C 1284.495679 287.55151 996.964979 0.0062874 642.269552 -0.0374368 Z M 642.269552 -0.0374368 " stroke="#ffab1a" stroke-width="63.162998" stroke-opacity="1" stroke-miterlimit="4"/></g></g></g></g><g clip-path="url(#b0e409195b)"><g clip-path="url(#56d67e4cf5)"><g clip-path="url(#53e916ac49)"><g clip-path="url(#2db9b3b7df)"><path stroke-linecap="butt" transform="matrix(-0.0337375, 0.0508841, -0.0508841, -0.0337375, 244.222878, 105.905457)" fill="none" stroke-linejoin="miter" d="M 582.382129 0.0110375 C 260.728561 0.0152437 -0.00655829 260.711568 -0.00235214 582.365137 C 0.00185402 904.018705 260.733535 1164.80715 582.351747 1164.749618 C 904.005315 1164.745412 1164.79376 904.013731 1164.736228 582.395519 C 1164.732022 260.741951 904.035698 0.00683137 582.382129 0.0110375 Z M 582.382129 0.0110375 " stroke="#ffab1a" stroke-width="63.162998" stroke-opacity="1" stroke-miterlimit="4"/></g></g></g></g><g clip-path="url(#5a61e79068)"><g clip-path="url(#5037f4106b)"><g clip-path="url(#c665979d90)"><g clip-path="url(#bd28288da0)"><path stroke-linecap="butt" transform="matrix(-0.0337375, 0.0508841, -0.0508841, -0.0337375, 239.341209, 105.403819)" fill="none" stroke-linejoin="miter" d="M 511.237995 -0.00816941 C 228.872859 -0.0289892 0.017846 228.859297 -0.00297375 511.224433 C -0.00582417 793.500887 228.864492 1022.444582 511.194272 1022.412076 C 793.524052 1022.37957 1022.414421 793.54461 1022.381916 511.21483 C 1022.402735 228.849694 793.51445 -0.00531898 511.237995 -0.00816941 Z M 511.237995 -0.00816941 " stroke="#f5900d" stroke-width="63.162998" stroke-opacity="1" stroke-miterlimit="4"/></g></g></g></g><g clip-path="url(#57954e844a)"><g clip-path="url(#9ad765b18b)"><g clip-path="url(#aaa1f8a99e)"><g clip-path="url(#a2df976530)"><path stroke-linecap="butt" transform="matrix(-0.0337375, 0.0508841, -0.0508841, -0.0337375, 234.455316, 104.973854)" fill="none" stroke-linejoin="miter" d="M 440.62246 -0.000268453 C 197.261742 -0.0113403 0.0202071 197.245688 0.00913523 440.606406 C -0.00193663 683.967124 197.255091 881.208659 440.61581 881.219731 C 683.976528 881.230803 881.218063 683.973775 881.229135 440.613057 C 881.240207 197.252338 683.983179 0.0108034 440.62246 -0.000268453 Z M 440.62246 -0.000268453 " stroke="#e95e01" stroke-width="63.162998" stroke-opacity="1" stroke-miterlimit="4"/></g></g></g></g><g clip-path="url(#dbb51b35d7)"><g clip-path="url(#1924999fb7)"><g clip-path="url(#cebaed39f5)"><g clip-path="url(#5fc9942fed)"><path stroke-linecap="butt" transform="matrix(-0.0337375, 0.0508841, -0.0508841, -0.0337375, 229.892203, 104.536648)" fill="none" stroke-linejoin="miter" d="M 374.36921 0.0042442 C 167.617337 -0.0208733 0.0144884 167.605144 -0.0106291 374.357017 C -0.0357466 581.10889 167.59027 748.711738 374.342143 748.736856 C 581.147342 748.726617 748.696865 581.135956 748.721982 374.384083 C 748.711744 167.578885 581.121083 0.0293617 374.36921 0.0042442 Z M 374.36921 0.0042442 " stroke="#e95e01" stroke-width="63.162998" stroke-opacity="1" stroke-miterlimit="4"/></g></g></g></g><g transform="matrix(1, 0, 0, 1, 251, 22)"><g clip-path="url(#a3bdeda1cd)"><g fill="#ffffff" fill-opacity="1"><g transform="translate(177.97254, 55.149892)"><g/></g></g><g fill="#ffffff" fill-opacity="1"><g transform="translate(148.458471, 55.149892)"><g><path d="M -42.984375 -1.4375 C -38.972656 -1.4375 -35.421875 -0.515625 -32.328125 1.328125 C -29.242188 3.171875 -27.019531 5.976562 -25.65625 9.75 L 0 84.296875 L -21.796875 84.296875 L -41.3125 19.03125 C -41.46875 18.539062 -41.6875 18.175781 -41.96875 17.9375 C -42.25 17.695312 -42.585938 17.578125 -42.984375 17.578125 C -43.390625 17.578125 -43.734375 17.675781 -44.015625 17.875 C -44.296875 18.082031 -44.515625 18.46875 -44.671875 19.03125 L -64.546875 84.296875 L -85.859375 84.296875 L -60.328125 9.75 C -59.046875 6.132812 -56.835938 3.363281 -53.703125 1.4375 C -50.578125 -0.476562 -47.003906 -1.4375 -42.984375 -1.4375 Z M -42.984375 -1.4375 "/></g></g></g><g fill="#ffffff" fill-opacity="1"><g transform="translate(33.088131, 55.149892)"><g/></g></g></g></g><g transform="matrix(1, 0, 0, 1, 237, 22)"><g clip-path="url(#3322b6f31a)"><g clip-path="url(#ba6fb8a2fd)"><g fill="#ffffff" fill-opacity="1"><g transform="translate(0.610147, 137.704864)"><g><path d="M 42.984375 1.4375 C 38.972656 1.4375 35.421875 0.515625 32.328125 -1.328125 C 29.242188 -3.171875 27.019531 -5.976562 25.65625 -9.75 L 0 -84.296875 L 21.796875 -84.296875 L 41.3125 -19.03125 C 41.46875 -18.539062 41.6875 -18.175781 41.96875 -17.9375 C 42.25 -17.695312 42.585938 -17.578125 42.984375 -17.578125 C 43.390625 -17.578125 43.734375 -17.675781 44.015625 -17.875 C 44.296875 -18.082031 44.515625 -18.46875 44.671875 -19.03125 L 64.546875 -84.296875 L 85.859375 -84.296875 L 60.328125 -9.75 C 59.046875 -6.132812 56.835938 -3.363281 53.703125 -1.4375 C 50.578125 0.476562 47.003906 1.4375 42.984375 1.4375 Z M 42.984375 1.4375 "/></g></g></g></g></g></g><g transform="matrix(1, 0, 0, 1, 46, 22)"><g clip-path="url(#96bd616cb3)"><g fill="#ffffff" fill-opacity="1"><g transform="translate(0.244477, 137.704864)"><g><path d="M 66.71875 1.4375 C 61.65625 1.4375 57.113281 0.335938 53.09375 -1.859375 C 49.082031 -4.066406 45.910156 -7.140625 43.578125 -11.078125 C 41.253906 -15.015625 40.09375 -19.472656 40.09375 -24.453125 L 40.09375 -61.296875 C 40.09375 -62.578125 39.769531 -63.738281 39.125 -64.78125 C 38.488281 -65.832031 37.648438 -66.675781 36.609375 -67.3125 C 35.566406 -67.957031 34.398438 -68.28125 33.109375 -68.28125 C 31.828125 -68.28125 30.664062 -67.957031 29.625 -67.3125 C 28.582031 -66.675781 27.757812 -65.832031 27.15625 -64.78125 C 26.550781 -63.738281 26.25 -62.578125 26.25 -61.296875 L 26.25 0 L 6.5 0 L 6.5 -59.84375 C 6.5 -64.90625 7.640625 -69.363281 9.921875 -73.21875 C 12.210938 -77.070312 15.382812 -80.117188 19.4375 -82.359375 C 23.5 -84.609375 28.054688 -85.734375 33.109375 -85.734375 C 38.253906 -85.734375 42.832031 -84.609375 46.84375 -82.359375 C 50.851562 -80.117188 54.019531 -77.070312 56.34375 -73.21875 C 58.675781 -69.363281 59.84375 -64.90625 59.84375 -59.84375 L 59.84375 -23 C 59.84375 -21.71875 60.164062 -20.535156 60.8125 -19.453125 C 61.457031 -18.367188 62.28125 -17.523438 63.28125 -16.921875 C 64.28125 -16.316406 65.382812 -16.015625 66.59375 -16.015625 C 67.875 -16.015625 69.054688 -16.316406 70.140625 -16.921875 C 71.222656 -17.523438 72.085938 -18.367188 72.734375 -19.453125 C 73.378906 -20.535156 73.703125 -21.71875 73.703125 -23 L 73.703125 -84.296875 L 93.328125 -84.296875 L 93.328125 -24.453125 C 93.328125 -19.472656 92.160156 -15.015625 89.828125 -11.078125 C 87.503906 -7.140625 84.332031 -4.066406 80.3125 -1.859375 C 76.300781 0.335938 71.769531 1.4375 66.71875 1.4375 Z M 66.71875 1.4375 "/></g></g></g></g></g></svg>