<svg xmlns="http://www.w3.org/2000/svg" xmlns:xlink="http://www.w3.org/1999/xlink" width="500" zoomAndPan="magnify" viewBox="0 0 375 374.999991" height="500" preserveAspectRatio="xMidYMid meet" version="1.0"><defs><g/><clipPath id="602541a94d"><path d="M 111.085938 139.613281 L 197.066406 139.613281 L 197.066406 225.59375 L 111.085938 225.59375 Z M 111.085938 139.613281 " clip-rule="nonzero"/></clipPath><clipPath id="e32722f009"><path d="M 213.644531 170.53125 L 166.132812 242.183594 L 94.476562 194.675781 L 141.988281 123.019531 Z M 213.644531 170.53125 " clip-rule="nonzero"/></clipPath><clipPath id="a576230a23"><path d="M 213.644531 170.53125 L 166.144531 242.171875 L 94.503906 194.671875 L 142.003906 123.03125 Z M 213.644531 170.53125 " clip-rule="nonzero"/></clipPath><clipPath id="c797cb596a"><path d="M 189.894531 206.351562 C 203.011719 186.566406 197.605469 159.894531 177.824219 146.78125 C 158.039062 133.664062 131.371094 139.066406 118.253906 158.851562 C 105.136719 178.632812 110.539062 205.304688 130.324219 218.421875 C 150.105469 231.535156 176.777344 226.132812 189.894531 206.351562 Z M 189.894531 206.351562 " clip-rule="nonzero"/></clipPath><clipPath id="55f16d1927"><path d="M 115.59375 142 L 194.25 142 L 194.25 220.601562 L 115.59375 220.601562 Z M 115.59375 142 " clip-rule="nonzero"/></clipPath><clipPath id="9f921a3ab4"><path d="M 209.371094 170.269531 L 165.949219 235.757812 L 100.460938 192.339844 L 143.878906 126.847656 Z M 209.371094 170.269531 " clip-rule="nonzero"/></clipPath><clipPath id="32ec765db7"><path d="M 209.371094 170.269531 L 165.964844 235.734375 L 100.5 192.332031 L 143.90625 126.863281 Z M 209.371094 170.269531 " clip-rule="nonzero"/></clipPath><clipPath id="9fcb604362"><path d="M 187.667969 203.003906 C 199.652344 184.925781 194.714844 160.554688 176.636719 148.566406 C 158.558594 136.582031 134.1875 141.519531 122.203125 159.597656 C 110.214844 177.675781 115.15625 202.046875 133.230469 214.03125 C 151.308594 226.019531 175.679688 221.082031 187.667969 203.003906 Z M 187.667969 203.003906 " clip-rule="nonzero"/></clipPath><clipPath id="1dde96c8f1"><path d="M 120.023438 144.605469 L 191.269531 144.605469 L 191.269531 215.851562 L 120.023438 215.851562 Z M 120.023438 144.605469 " clip-rule="nonzero"/></clipPath><clipPath id="9971a9a5bb"><path d="M 205 170.234375 L 165.636719 229.605469 L 106.261719 190.238281 L 145.628906 130.867188 Z M 205 170.234375 " clip-rule="nonzero"/></clipPath><clipPath id="81f1c5de0c"><path d="M 205 170.234375 L 165.644531 229.59375 L 106.28125 190.234375 L 145.640625 130.875 Z M 205 170.234375 " clip-rule="nonzero"/></clipPath><clipPath id="9df9b70648"><path d="M 185.320312 199.914062 C 196.191406 183.519531 191.710938 161.421875 175.320312 150.554688 C 158.929688 139.683594 136.828125 144.164062 125.960938 160.554688 C 115.09375 176.949219 119.570312 199.046875 135.960938 209.914062 C 152.355469 220.785156 174.453125 216.304688 185.320312 199.914062 Z M 185.320312 199.914062 " clip-rule="nonzero"/></clipPath><clipPath id="cbedcdf082"><path d="M 125.496094 147.179688 L 188.050781 147.179688 L 188.050781 209.816406 L 125.496094 209.816406 Z M 125.496094 147.179688 " clip-rule="nonzero"/></clipPath><clipPath id="c8bf42a8f9"><path d="M 200.113281 169.730469 L 165.578125 221.816406 L 113.492188 187.28125 L 148.027344 135.195312 Z M 200.113281 169.730469 " clip-rule="nonzero"/></clipPath><clipPath id="1a9490d692"><path d="M 200.113281 169.730469 L 165.5625 221.835938 L 113.457031 187.289062 L 148.003906 135.183594 Z M 200.113281 169.730469 " clip-rule="nonzero"/></clipPath><clipPath id="c481f4ae26"><path d="M 182.835938 195.785156 C 192.378906 181.394531 188.449219 161.996094 174.058594 152.457031 C 159.671875 142.917969 140.273438 146.847656 130.730469 161.234375 C 121.191406 175.625 125.121094 195.023438 139.511719 204.5625 C 153.898438 214.101562 173.296875 210.171875 182.835938 195.785156 Z M 182.835938 195.785156 " clip-rule="nonzero"/></clipPath><clipPath id="c07cce19e6"><path d="M 130.890625 149.917969 L 184.832031 149.917969 L 184.832031 203.859375 L 130.890625 203.859375 Z M 130.890625 149.917969 " clip-rule="nonzero"/></clipPath><clipPath id="c5b587df62"><path d="M 195.21875 169.300781 L 165.449219 214.199219 L 120.550781 184.429688 L 150.320312 139.53125 Z M 195.21875 169.300781 " clip-rule="nonzero"/></clipPath><clipPath id="0b21af6c8a"><path d="M 195.21875 169.300781 L 165.441406 214.210938 L 120.53125 184.433594 L 150.308594 139.523438 Z M 195.21875 169.300781 " clip-rule="nonzero"/></clipPath><clipPath id="7e2a4a56bf"><path d="M 180.328125 191.753906 C 188.550781 179.355469 185.164062 162.632812 172.761719 154.410156 C 160.359375 146.1875 143.640625 149.578125 135.417969 161.976562 C 127.195312 174.378906 130.585938 191.097656 142.984375 199.320312 C 155.386719 207.542969 172.105469 204.15625 180.328125 191.753906 Z M 180.328125 191.753906 " clip-rule="nonzero"/></clipPath><clipPath id="9c0415fe4f"><path d="M 136 152.335938 L 181.851562 152.335938 L 181.851562 198.222656 L 136 198.222656 Z M 136 152.335938 " clip-rule="nonzero"/></clipPath><clipPath id="dc3bb174da"><path d="M 190.648438 168.863281 L 165.339844 207.035156 L 127.167969 181.726562 L 152.476562 143.554688 Z M 190.648438 168.863281 " clip-rule="nonzero"/></clipPath><clipPath id="438fb5e99b"><path d="M 190.648438 168.863281 L 165.347656 207.019531 L 127.191406 181.71875 L 152.488281 143.5625 Z M 190.648438 168.863281 " clip-rule="nonzero"/></clipPath><clipPath id="efd0c317fc"><path d="M 178 187.941406 C 184.984375 177.402344 182.105469 163.199219 171.570312 156.210938 C 161.03125 149.226562 146.828125 152.105469 139.839844 162.640625 C 132.855469 173.179688 135.730469 187.382812 146.269531 194.371094 C 156.804688 201.355469 171.011719 198.476562 178 187.941406 Z M 178 187.941406 " clip-rule="nonzero"/></clipPath><clipPath id="e25f2942e9"><rect x="0" width="170" y="0" height="192"/></clipPath><clipPath id="deed3abcf7"><path d="M 0.519531 53 L 87 53 L 87 139 L 0.519531 139 Z M 0.519531 53 " clip-rule="nonzero"/></clipPath><clipPath id="c284c14800"><rect x="0" width="89" y="0" height="192"/></clipPath><clipPath id="b9b24f2bee"><rect x="0" width="102" y="0" height="192"/></clipPath></defs><g clip-path="url(#602541a94d)"><g clip-path="url(#e32722f009)"><g clip-path="url(#a576230a23)"><g clip-path="url(#c797cb596a)"><path stroke-linecap="butt" transform="matrix(-0.0337906, 0.0509642, -0.0509642, -0.0337906, 213.643056, 170.529392)" fill="none" stroke-linejoin="miter" d="M 702.866121 -0.0341436 C 314.657445 -0.0220783 -0.0207668 314.697097 0.00923959 702.817231 C 0.0213049 1091.025906 314.651938 1405.686177 702.860614 1405.674112 C 1091.016048 1405.697347 1405.72956 1091.031413 1405.717495 702.822738 C 1405.687489 314.702605 1091.021555 -0.0109083 702.866121 -0.0341436 Z M 702.866121 -0.0341436 " stroke="#ffd966" stroke-width="63.162998" stroke-opacity="1" stroke-miterlimit="4"/></g></g></g></g><g clip-path="url(#55f16d1927)"><g clip-path="url(#9f921a3ab4)"><g clip-path="url(#32ec765db7)"><g clip-path="url(#9fcb604362)"><path stroke-linecap="butt" transform="matrix(-0.0337906, 0.0509642, -0.0509642, -0.0337906, 209.36977, 170.270058)" fill="none" stroke-linejoin="miter" d="M 642.276525 -0.0216855 C 287.571651 0.00409722 0.0167206 287.542201 -0.0107384 642.282376 C 0.0150444 996.98725 287.553148 1284.542181 642.258023 1284.516398 C 996.998197 1284.543857 1284.517827 996.952511 1284.527345 642.300879 C 1284.554804 287.560704 997.0167 0.00577343 642.276525 -0.0216855 Z M 642.276525 -0.0216855 " stroke="#ffab1a" stroke-width="63.162998" stroke-opacity="1" stroke-miterlimit="4"/></g></g></g></g><g clip-path="url(#1dde96c8f1)"><g clip-path="url(#9971a9a5bb)"><g clip-path="url(#81f1c5de0c)"><g clip-path="url(#9df9b70648)"><path stroke-linecap="butt" transform="matrix(-0.0337906, 0.0509642, -0.0509642, -0.0337906, 205.001153, 170.233026)" fill="none" stroke-linejoin="miter" d="M 582.40375 0.0210204 C 260.706724 0.00611582 0.00828548 260.769978 0.011322 582.378462 C -0.0388832 904.022246 260.760279 1164.773926 582.368763 1164.77089 C 904.030489 1164.732552 1164.764228 904.021932 1164.761191 582.413448 C 1164.776096 260.716422 904.012234 0.0179838 582.40375 0.0210204 Z M 582.40375 0.0210204 " stroke="#ffab1a" stroke-width="63.162998" stroke-opacity="1" stroke-miterlimit="4"/></g></g></g></g><g clip-path="url(#cbedcdf082)"><g clip-path="url(#c8bf42a8f9)"><g clip-path="url(#1a9490d692)"><g clip-path="url(#c481f4ae26)"><path stroke-linecap="butt" transform="matrix(-0.0337906, 0.0509642, -0.0509642, -0.0337906, 200.111814, 169.7306)" fill="none" stroke-linejoin="miter" d="M 511.241708 0.014018 C 228.859882 -0.00793204 -0.0259344 228.856119 0.00535727 511.202643 C 0.00134831 793.495926 228.865399 1022.381743 511.193982 1022.438993 C 793.540507 1022.407702 1022.426324 793.543651 1022.395032 511.197127 C 1022.399041 228.903844 793.53499 0.0180269 511.241708 0.014018 Z M 511.241708 0.014018 " stroke="#f5900d" stroke-width="63.162998" stroke-opacity="1" stroke-miterlimit="4"/></g></g></g></g><g clip-path="url(#c07cce19e6)"><g clip-path="url(#c5b587df62)"><g clip-path="url(#0b21af6c8a)"><g clip-path="url(#7e2a4a56bf)"><path stroke-linecap="butt" transform="matrix(-0.0337906, 0.0509642, -0.0509642, -0.0337906, 195.218224, 169.299949)" fill="none" stroke-linejoin="miter" d="M 440.605824 0.0346401 C 197.308874 0.00506304 -0.01317 197.28759 -0.00744644 440.637782 C -0.00172284 683.987974 197.298745 881.221476 440.595695 881.251053 C 683.945887 881.245329 881.179389 683.944861 881.208966 440.647911 C 881.203242 197.297719 683.956016 0.0289165 440.605824 0.0346401 Z M 440.605824 0.0346401 " stroke="#e95e01" stroke-width="63.162998" stroke-opacity="1" stroke-miterlimit="4"/></g></g></g></g><g clip-path="url(#9c0415fe4f)"><g clip-path="url(#dc3bb174da)"><g clip-path="url(#438fb5e99b)"><g clip-path="url(#efd0c317fc)"><path stroke-linecap="butt" transform="matrix(-0.0337906, 0.0509642, -0.0509642, -0.0337906, 190.647926, 168.86205)" fill="none" stroke-linejoin="miter" d="M 374.348013 -0.0297619 C 167.584407 0.0151798 0.0141736 167.607383 -0.029427 374.353048 C 0.0155147 581.116654 167.607718 748.686888 374.353383 748.730488 C 581.116989 748.685547 748.722523 581.146585 748.730823 374.347679 C 748.721182 167.637314 581.093678 0.0138387 374.348013 -0.0297619 Z M 374.348013 -0.0297619 " stroke="#e95e01" stroke-width="63.162998" stroke-opacity="1" stroke-miterlimit="4"/></g></g></g></g><g transform="matrix(1, 0, 0, 1, 205, 86)"><g clip-path="url(#e25f2942e9)"><g fill="#ffffff" fill-opacity="1"><g transform="translate(148.85868, 54.756023)"><g><path d="M -43.0625 -1.453125 C -39.039062 -1.453125 -35.476562 -0.53125 -32.375 1.3125 C -29.28125 3.164062 -27.050781 5.984375 -25.6875 9.765625 L 0 84.421875 L -21.828125 84.421875 L -41.375 19.0625 C -41.53125 18.570312 -41.75 18.207031 -42.03125 17.96875 C -42.3125 17.726562 -42.65625 17.609375 -43.0625 17.609375 C -43.457031 17.609375 -43.796875 17.707031 -44.078125 17.90625 C -44.359375 18.113281 -44.582031 18.5 -44.75 19.0625 L -64.640625 84.421875 L -86 84.421875 L -60.421875 9.765625 C -59.140625 6.148438 -56.929688 3.375 -53.796875 1.4375 C -50.660156 -0.488281 -47.082031 -1.453125 -43.0625 -1.453125 Z M -43.0625 -1.453125 "/></g></g></g><g fill="#ffffff" fill-opacity="1"><g transform="translate(65.268444, 54.756023)"><g/></g></g><g fill="#ffffff" fill-opacity="1"><g transform="translate(33.306657, 54.756023)"><g/></g></g></g></g><g transform="matrix(1, 0, 0, 1, 191, 86)"><g clip-path="url(#c284c14800)"><g clip-path="url(#deed3abcf7)"><g fill="#ffffff" fill-opacity="1"><g transform="translate(0.755495, 137.44101)"><g><path d="M 43.0625 1.453125 C 39.039062 1.453125 35.476562 0.53125 32.375 -1.3125 C 29.28125 -3.164062 27.050781 -5.984375 25.6875 -9.765625 L 0 -84.421875 L 21.828125 -84.421875 L 41.375 -19.0625 C 41.53125 -18.570312 41.75 -18.207031 42.03125 -17.96875 C 42.3125 -17.726562 42.65625 -17.609375 43.0625 -17.609375 C 43.457031 -17.609375 43.796875 -17.707031 44.078125 -17.90625 C 44.359375 -18.113281 44.582031 -18.5 44.75 -19.0625 L 64.640625 -84.421875 L 86 -84.421875 L 60.421875 -9.765625 C 59.140625 -6.148438 56.929688 -3.375 53.796875 -1.4375 C 50.660156 0.488281 47.082031 1.453125 43.0625 1.453125 Z M 43.0625 1.453125 "/></g></g></g></g></g></g><g transform="matrix(1, 0, 0, 1, 10, 86)"><g clip-path="url(#b9b24f2bee)"><g fill="#ffffff" fill-opacity="1"><g transform="translate(0.850058, 137.44101)"><g><path d="M 66.8125 1.453125 C 61.75 1.453125 57.207031 0.347656 53.1875 -1.859375 C 49.164062 -4.078125 45.988281 -7.15625 43.65625 -11.09375 C 41.320312 -15.03125 40.15625 -19.492188 40.15625 -24.484375 L 40.15625 -61.390625 C 40.15625 -62.671875 39.832031 -63.832031 39.1875 -64.875 C 38.550781 -65.925781 37.707031 -66.773438 36.65625 -67.421875 C 35.613281 -68.066406 34.453125 -68.390625 33.171875 -68.390625 C 31.878906 -68.390625 30.710938 -68.066406 29.671875 -67.421875 C 28.628906 -66.773438 27.804688 -65.925781 27.203125 -64.875 C 26.597656 -63.832031 26.296875 -62.671875 26.296875 -61.390625 L 26.296875 0 L 6.515625 0 L 6.515625 -59.9375 C 6.515625 -65.007812 7.660156 -69.472656 9.953125 -73.328125 C 12.242188 -77.191406 15.414062 -80.25 19.46875 -82.5 C 23.53125 -84.75 28.097656 -85.875 33.171875 -85.875 C 38.316406 -85.875 42.898438 -84.75 46.921875 -82.5 C 50.941406 -80.25 54.113281 -77.191406 56.4375 -73.328125 C 58.769531 -69.472656 59.9375 -65.007812 59.9375 -59.9375 L 59.9375 -23.03125 C 59.9375 -21.75 60.257812 -20.5625 60.90625 -19.46875 C 61.550781 -18.382812 62.375 -17.539062 63.375 -16.9375 C 64.382812 -16.34375 65.492188 -16.046875 66.703125 -16.046875 C 67.984375 -16.046875 69.164062 -16.34375 70.25 -16.9375 C 71.34375 -17.539062 72.207031 -18.382812 72.84375 -19.46875 C 73.488281 -20.5625 73.8125 -21.75 73.8125 -23.03125 L 73.8125 -84.421875 L 93.46875 -84.421875 L 93.46875 -24.484375 C 93.46875 -19.492188 92.300781 -15.03125 89.96875 -11.09375 C 87.644531 -7.15625 84.472656 -4.078125 80.453125 -1.859375 C 76.429688 0.347656 71.882812 1.453125 66.8125 1.453125 Z M 66.8125 1.453125 "/></g></g></g></g></g></svg>